<?xml version="1.0" encoding="utf-8"?>
<!-- Generator: Adobe Illustrator 16.0.0, SVG Export Plug-In . SVG Version: 6.00 Build 0)  -->
<!DOCTYPE svg PUBLIC "-//W3C//DTD SVG 1.1//EN" "http://www.w3.org/Graphics/SVG/1.1/DTD/svg11.dtd">
<svg version="1.1" id="Layer_1" xmlns="http://www.w3.org/2000/svg" xmlns:xlink="http://www.w3.org/1999/xlink" x="0px" y="0px"
	 width="250px" height="83px" viewBox="0 0 250 83" enable-background="new 0 0 250 83" xml:space="preserve">
<g>
	<path fill="#B3B4B4" d="M88.345,50.488c8.354-6.647,2.661-12.059-12.748-12.059c-5.123,0-10.71,0.606-16.143,1.646l30.899-24.592
		H76.529L3.309,73.749h14.077L42.682,53.62c5.596-4.453,16.379-8.063,24.083-8.063c7.706,0,9.416,3.61,3.819,8.063L45.289,73.749
		h13.822L88.345,50.488z"/>
</g>
<path fill="#2A3391" d="M46.946,15.894c-4.325-2.063-9.459-3.259-14.967-3.259c-5.123,0-9.947,1.05-14.074,2.849l-0.004-8.683
	L4.075,11.018v62.731h14.077V38.918c0-7.705,6.247-13.951,13.951-13.951c2.701,0,5.224,0.768,7.36,2.096L46.946,15.894z"/>
<g>
	<rect x="123.178" y="6.911" width="4.882" height="5.231"/>
	<rect x="123.178" y="17.298" width="4.882" height="27.399"/>
	<path d="M137.052,41.671c1.129,1.204,2.478,2.117,4.048,2.739c1.568,0.623,3.3,0.935,5.193,0.935c1.444,0,2.802-0.19,4.072-0.573
		c1.271-0.381,2.395-0.945,3.375-1.693c0.979-0.747,1.781-1.669,2.404-2.765c0.622-1.096,1.017-2.366,1.183-3.811h-4.981
		c-0.051,0.88-0.246,1.636-0.586,2.267c-0.34,0.631-0.784,1.146-1.332,1.544c-0.549,0.398-1.18,0.693-1.893,0.884
		c-0.715,0.191-1.462,0.286-2.242,0.286c-2.441,0-4.355-0.875-5.742-2.627s-2.08-4.363-2.08-7.834c0-1.694,0.188-3.196,0.561-4.508
		c0.374-1.312,0.905-2.416,1.595-3.313c0.688-0.896,1.515-1.573,2.479-2.03c0.963-0.457,2.026-0.685,3.188-0.685
		c0.78,0,1.527,0.112,2.242,0.336c0.713,0.225,1.344,0.548,1.893,0.972c0.548,0.423,0.992,0.951,1.332,1.582
		c0.34,0.631,0.535,1.354,0.586,2.167h4.981c-0.166-1.361-0.54-2.586-1.121-3.674c-0.581-1.087-1.345-2.013-2.292-2.777
		c-0.945-0.764-2.059-1.349-3.337-1.756c-1.279-0.407-2.707-0.61-4.284-0.61c-1.894,0-3.625,0.312-5.193,0.934
		c-1.57,0.623-2.919,1.532-4.048,2.728c-1.13,1.195-2.001,2.686-2.616,4.471c-0.613,1.785-0.921,3.84-0.921,6.165
		c0,2.325,0.308,4.38,0.921,6.165C135.051,38.973,135.922,40.467,137.052,41.671z"/>
	<polygon points="166.518,33.788 169.557,30.773 178.449,44.697 184.254,44.697 172.82,27.535 183.207,17.298 177.08,17.298 
		166.518,28.308 166.518,6.911 161.637,6.911 161.637,44.697 166.518,44.697 	"/>
	<path d="M118.594,45.773c-1.528,0-2.968,0.328-4.321,0.984c-1.354,0.656-2.637,1.697-3.849,3.125V25.318
		c1.81-2.59,3.927-3.886,6.352-3.886c1.212,0,2.208,0.108,2.989,0.324v-4.832c-0.398-0.083-0.776-0.137-1.133-0.162
		c-0.357-0.025-0.719-0.037-1.083-0.037c-2.79,0-5.165,1.478-7.124,4.434v-3.861h-4.882v56.448h4.882V54.117
		c2.458-2.922,4.932-4.383,7.423-4.383c1.843,0,3.159,0.494,3.948,1.482c0.789,0.986,1.184,2.594,1.184,4.818v17.711h4.906V55.787
		C127.885,49.111,124.788,45.773,118.594,45.773z"/>
	<path d="M155.409,49.547c-1.112-1.221-2.466-2.154-4.06-2.803c-1.595-0.646-3.363-0.971-5.307-0.971
		c-1.893,0-3.623,0.312-5.193,0.934c-1.568,0.623-2.918,1.532-4.047,2.729c-1.129,1.195-2.002,2.686-2.615,4.471
		c-0.615,1.785-0.922,3.84-0.922,6.164c0,2.326,0.307,4.381,0.922,6.166c0.613,1.785,1.486,3.279,2.615,4.482
		c1.129,1.205,2.479,2.117,4.047,2.74c1.57,0.623,3.301,0.934,5.193,0.934c1.91,0,3.654-0.311,5.231-0.934s2.931-1.535,4.06-2.74
		c1.129-1.203,2.006-2.697,2.629-4.482c0.622-1.785,0.934-3.84,0.934-6.166c0-2.258-0.303-4.271-0.909-6.039
		C157.381,52.262,156.521,50.768,155.409,49.547z M151.76,67.918c-1.387,1.742-3.292,2.615-5.717,2.615
		c-2.44,0-4.354-0.877-5.74-2.629c-1.387-1.752-2.08-4.363-2.08-7.834c0-1.693,0.187-3.195,0.561-4.508
		c0.373-1.313,0.904-2.416,1.594-3.313s1.516-1.574,2.479-2.031c0.963-0.455,2.025-0.684,3.188-0.684
		c1.146,0,2.201,0.219,3.164,0.66c0.963,0.439,1.789,1.096,2.479,1.967c0.689,0.873,1.221,1.969,1.594,3.289
		c0.374,1.318,0.561,2.859,0.561,4.619C153.84,63.559,153.146,66.174,151.76,67.918z"/>
	<path d="M169.794,52.25c0.688-0.896,1.515-1.574,2.479-2.031c0.963-0.455,2.026-0.684,3.188-0.684c0.779,0,1.527,0.111,2.242,0.336
		c0.713,0.225,1.344,0.547,1.893,0.971c0.547,0.424,0.992,0.951,1.332,1.582s0.535,1.354,0.586,2.168h4.98
		c-0.166-1.361-0.539-2.588-1.119-3.674c-0.582-1.088-1.346-2.014-2.293-2.778c-0.945-0.764-2.059-1.349-3.338-1.756
		c-1.277-0.407-2.707-0.61-4.283-0.61c-1.894,0-3.625,0.312-5.193,0.934c-1.57,0.623-2.919,1.532-4.048,2.729
		c-1.13,1.195-2.001,2.686-2.616,4.471c-0.613,1.785-0.921,3.84-0.921,6.164c0,2.326,0.308,4.381,0.921,6.166
		c0.615,1.785,1.486,3.279,2.616,4.482c1.129,1.205,2.478,2.117,4.048,2.74c1.568,0.623,3.3,0.934,5.193,0.934
		c1.445,0,2.803-0.191,4.072-0.572s2.395-0.947,3.375-1.693c0.98-0.748,1.781-1.67,2.404-2.766s1.016-2.365,1.182-3.811h-4.98
		c-0.051,0.881-0.246,1.635-0.586,2.268c-0.34,0.631-0.785,1.145-1.332,1.543c-0.549,0.398-1.18,0.693-1.893,0.885
		c-0.715,0.191-1.463,0.287-2.242,0.287c-2.441,0-4.355-0.877-5.742-2.629s-2.08-4.363-2.08-7.834c0-1.693,0.188-3.195,0.561-4.508
		C168.573,54.25,169.104,53.146,169.794,52.25z"/>
	<path d="M208.166,65.949c-2.309,2.939-4.801,4.408-7.473,4.408c-1.844,0-3.156-0.484-3.936-1.457
		c-0.781-0.971-1.172-2.578-1.172-4.818V46.346h-4.881v17.936c0,6.74,3.096,10.111,9.291,10.111c3.021,0,5.744-1.377,8.17-4.135
		v3.488h4.807v-27.4h-4.807V65.949z"/>
	<path d="M228.416,70.283c-0.416,0-0.785-0.045-1.109-0.137c-0.322-0.092-0.605-0.291-0.846-0.598s-0.42-0.748-0.535-1.32
		c-0.117-0.572-0.176-1.332-0.176-2.279V50.207h4.459v-3.861h-4.459v-6.75h-4.832v6.75h-3.387v3.861h3.387v15.518
		c0,1.313,0.047,2.482,0.137,3.512c0.092,1.031,0.354,1.91,0.785,2.641s1.072,1.283,1.918,1.656
		c0.848,0.375,2.043,0.561,3.588,0.561c0.646,0,1.258-0.02,1.83-0.063c0.572-0.041,1.133-0.129,1.682-0.26v-3.662
		c-0.416,0.066-0.818,0.111-1.209,0.137S228.848,70.283,228.416,70.283z"/>
	<path d="M244.32,70.246c-0.391,0.025-0.803,0.037-1.234,0.037c-0.414,0-0.783-0.045-1.107-0.137s-0.605-0.291-0.848-0.598
		c-0.24-0.307-0.418-0.748-0.535-1.32c-0.115-0.572-0.174-1.332-0.174-2.279V50.207h4.459v-3.861h-4.459v-6.75h-4.832v6.75h-3.389
		v3.861h3.389v15.518c0,1.313,0.045,2.482,0.137,3.512c0.092,1.031,0.352,1.91,0.785,2.641c0.432,0.73,1.07,1.283,1.918,1.656
		c0.846,0.375,2.041,0.561,3.586,0.561c0.648,0,1.258-0.02,1.83-0.063c0.574-0.041,1.135-0.129,1.682-0.26v-3.662
		C245.113,70.176,244.709,70.221,244.32,70.246z"/>
</g>
</svg>
