<svg display="none" width="0" height="0" version="1.1" xmlns="http://www.w3.org/2000/svg" xmlns:xlink="http://www.w3.org/1999/xlink">
<defs>
<symbol id="icon-Home" viewBox="0 0 1024 1024">
	<title>Home</title>
	<path class="path1" d="M1024 608l-192-192v-288h-128v160l-192-192-512 512v32h128v320h320v-192h128v192h320v-320h128z"></path>
</symbol>
<symbol id="icon-Comment" viewBox="0 0 1152 1024">
	<title>Comment</title>
	<path class="path1" d="M1088 901.166c0 45.5 26.028 84.908 64 104.184v15.938c-10.626 1.454-21.472 2.224-32.5 2.224-68.008 0-129.348-28.528-172.722-74.264-26.222 6.982-54.002 10.752-82.778 10.752-159.058 0-288-114.616-288-256s128.942-256 288-256c159.058 0 288 114.616 288 256 0 55.348-19.764 106.592-53.356 148.466-6.824 14.824-10.644 31.312-10.644 48.7zM512 0c278.458 0 504.992 180.614 511.836 405.52-49.182-21.92-103.586-33.52-159.836-33.52-95.56 0-185.816 33.446-254.138 94.178-70.846 62.972-109.862 147.434-109.862 237.822 0 44.672 9.544 87.888 27.736 127.788-5.228 0.126-10.468 0.212-15.736 0.212-27.156 0-53.81-1.734-79.824-5.044-109.978 109.978-241.25 129.7-368.176 132.596v-26.916c68.536-33.578 128-94.74 128-164.636 0-9.754-0.758-19.33-2.164-28.696-115.796-76.264-189.836-192.754-189.836-323.304 0-229.75 229.23-416 512-416z"></path>
</symbol>
<symbol id="icon-Portfolio" viewBox="0 0 1024 1024">
	<title>Portfolio</title>
	<path class="path1" d="M960 256h-256v-64c0-35.2-28.8-64-64-64h-256c-35.204 0-64 28.8-64 64v64h-256c-35.2 0-64 28.8-64 64v576c0 35.202 28.796 64 64 64h896c35.2 0 64-28.798 64-64v-576c0-35.2-28.8-64-64-64zM384 192.116c0.034-0.040 0.074-0.082 0.114-0.116h255.772c0.042 0.034 0.082 0.076 0.118 0.116v63.884h-256.004v-63.884zM960 512h-128v96c0 17.602-14.4 32-32 32h-64c-17.604 0-32-14.398-32-32v-96h-384v96c0 17.602-14.4 32-32 32h-64c-17.602 0-32-14.398-32-32v-96h-128v-64h896v64z"></path>
</symbol>
<symbol id="icon-codepen" viewBox="0 0 1024 1024">
	<title>codepen</title>
	<path class="path1" d="M510.656 453.216l-85.952 57.472 85.952 57.472 85.984-57.472z"></path>
	<path class="path2" d="M535.008 610.4v113.344l190.4-126.944-85.056-56.896z"></path>
	<path class="path3" d="M295.968 596.8l190.4 126.944v-113.344l-105.344-70.496z"></path>
	<path class="path4" d="M276.48 470.016v81.344l60.8-40.672z"></path>
	<path class="path5" d="M486.368 410.976v-113.376l-190.4 126.944 85.056 56.896z"></path>
	<path class="path6" d="M744.864 551.328v-81.344l-60.8 40.672z"></path>
	<path class="path7" d="M510.656 128.448c-210.752 0-382.208 171.488-382.208 382.208 0 210.784 171.456 382.208 382.208 382.208 210.784 0 382.208-171.424 382.208-382.208 0-210.72-171.456-382.208-382.208-382.208zM783.072 404.576c0.384 0.256 0.672 0.544 1.056 0.832 0.512 0.384 0.928 0.768 1.376 1.152 0.32 0.32 0.64 0.64 0.96 0.96 0.416 0.416 0.768 0.864 1.248 1.312 0.224 0.352 0.512 0.704 0.768 1.056 0.32 0.448 0.672 0.96 0.992 1.472 0.256 0.352 0.512 0.736 0.672 1.12 0.288 0.512 0.544 1.056 0.768 1.6 0.224 0.416 0.416 0.8 0.608 1.216 0.256 0.576 0.448 1.184 0.64 1.76 0.16 0.416 0.32 0.768 0.448 1.184 0.128 0.704 0.256 1.344 0.416 2.048 0.064 0.384 0.16 0.704 0.192 1.056 0.16 1.056 0.224 2.112 0.256 3.2v172.32c0 1.056-0.064 2.112-0.224 3.2-0.032 0.32-0.128 0.672-0.192 0.992-0.128 0.672-0.256 1.376-0.448 2.048-0.064 0.384-0.256 0.736-0.416 1.12-0.192 0.64-0.384 1.216-0.608 1.824-0.192 0.448-0.384 0.768-0.64 1.184-0.224 0.576-0.48 1.056-0.736 1.632-0.192 0.384-0.448 0.704-0.704 1.12-0.32 0.512-0.672 0.96-0.96 1.44-0.288 0.384-0.576 0.672-0.8 1.056-0.448 0.512-0.832 0.896-1.248 1.312-0.32 0.32-0.64 0.64-0.96 0.928-0.448 0.384-0.832 0.8-1.376 1.152-0.384 0.288-0.704 0.608-1.088 0.832-0.16 0.064-0.288 0.192-0.416 0.32l-258.464 172.288c-4.096 2.752-8.8 4.096-13.504 4.096s-9.408-1.344-13.504-4.096l-258.464-172.256c-0.128-0.128-0.256-0.256-0.416-0.32-0.352-0.256-0.736-0.544-1.088-0.832-0.48-0.352-0.928-0.768-1.376-1.152-0.352-0.288-0.64-0.64-0.992-0.928-0.416-0.416-0.8-0.8-1.184-1.312-0.288-0.384-0.576-0.672-0.864-1.056-0.352-0.48-0.704-0.928-1.024-1.44-0.224-0.416-0.448-0.736-0.672-1.12-0.32-0.576-0.576-1.056-0.832-1.632-0.192-0.416-0.384-0.736-0.544-1.184-0.288-0.608-0.48-1.184-0.672-1.824-0.128-0.384-0.256-0.736-0.384-1.12-0.16-0.672-0.288-1.376-0.416-2.048-0.064-0.32-0.16-0.672-0.192-0.992-0.16-1.088-0.224-2.176-0.224-3.2v-172.32c0-1.056 0.064-2.112 0.224-3.168 0.032-0.352 0.128-0.704 0.192-1.056 0.128-0.704 0.256-1.376 0.416-2.048 0.128-0.416 0.256-0.8 0.384-1.184 0.224-0.608 0.416-1.184 0.672-1.76 0.16-0.416 0.352-0.832 0.544-1.216 0.224-0.544 0.48-1.088 0.832-1.6 0.224-0.384 0.448-0.768 0.672-1.12 0.32-0.48 0.672-0.992 1.024-1.472 0.288-0.352 0.576-0.704 0.864-1.056 0.384-0.448 0.768-0.896 1.184-1.312 0.352-0.32 0.64-0.64 0.992-0.96 0.448-0.384 0.896-0.768 1.376-1.152 0.352-0.288 0.736-0.576 1.088-0.832 0.16-0.096 0.288-0.224 0.416-0.288l258.432-172.32c8.192-5.44 18.848-5.44 27.008 0l258.464 172.288c0.128 0.032 0.256 0.16 0.448 0.256z"></path>
	<path class="path8" d="M725.408 424.544l-190.4-126.944v113.376l105.344 70.464z"></path>
	<path class="path9" d="M853.344 0h-682.656c-93.856 0-170.688 76.8-170.688 170.688v682.624c0 93.952 76.8 170.688 170.688 170.688h682.656c93.92 0 170.656-76.736 170.656-170.688v-682.624c0-93.888-76.736-170.688-170.656-170.688zM510.656 968.032c-252.608 0-457.344-204.704-457.344-457.344 0-252.608 204.768-457.344 457.344-457.344 252.672 0 457.344 204.736 457.344 457.344 0 252.64-204.736 457.344-457.344 457.344z"></path>
</symbol>
<symbol id="icon-Facebook" viewBox="0 0 1024 1024">
	<title>Facebook</title>
	<path class="path1" d="M853.344 0h-682.66c-93.872 0-170.684 76.814-170.684 170.688v682.626c0 93.938 76.812 170.686 170.684 170.686l682.66-0.002c93.876 0 170.656-76.746 170.656-170.688v-682.622c0-93.874-76.782-170.688-170.656-170.688zM870.592 512h-166.592v448h-192v-448h-92.526v-146.564h92.526v-95.186c0-129.342 55.792-206.25 207.87-206.25h175.244v158.57h-143.13c-42.482-0.070-47.752 22.152-47.752 63.512l-0.232 79.354h192l-25.408 146.564z"></path>
</symbol>
<symbol id="icon-Twitter" viewBox="0 0 1024 1024">
	<title>Twitter</title>
	<path class="path1" d="M853.38 0h-682.692c-93.878 0-170.686 76.814-170.686 170.686v682.626c0 93.938 76.808 170.688 170.686 170.688h682.692c93.87 0 170.62-76.75 170.62-170.688v-682.628c-0.008-93.87-76.758-170.684-170.62-170.684zM731.716 824.688c-30.152 14.188-57.528 24.188-82 29.938-24.496 5.69-50.96 8.558-79.402 8.558-32.312 0-51.376-4.058-76.188-12.188-24.808-8.188-46-19.872-63.5-34.872-17.558-15.128-29.686-31.198-36.466-48.194-6.784-17.004-10.156-41.692-10.156-74.004v-247.802h-95.996v-100.066c27.744-9 59.936-21.934 79.684-38.75 19.84-16.872 35.718-37.058 47.684-60.684 12.004-23.566 20.25-53.626 24.752-90.066h100.5v163.442h163.372v126.126h-163.378v181.188c0 41-0.528 64.626 3.816 76.25 4.312 11.56 15.126 23.56 26.902 30.5 15.656 9.376 33.504 14.060 53.626 14.060 35.786 0 71.378-11.626 106.75-34.876v111.44z"></path>
</symbol>
<symbol id="icon-Email" viewBox="0 0 1024 1024">
	<title>Email</title>
	<path class="path1" d="M853.31 0h-682.62c-93.88 0-170.69 76.784-170.69 170.658v682.656c0 93.876 76.81 170.686 170.69 170.686h682.622c93.938 0 170.688-76.81 170.688-170.686v-682.656c0-93.874-76.75-170.658-170.69-170.658zM256 256h512c9.138 0 18.004 1.962 26.144 5.662l-282.144 329.168-282.144-329.17c8.14-3.696 17.006-5.66 26.144-5.66zM192 704v-384c0-1.34 0.056-2.672 0.14-4l187.664 218.94-185.598 185.6c-1.444-5.338-2.206-10.886-2.206-16.54zM768 768h-512c-5.654 0-11.202-0.762-16.54-2.206l182.118-182.118 90.422 105.496 90.424-105.494 182.116 182.118c-5.34 1.442-10.886 2.204-16.54 2.204zM832 704c0 5.654-0.762 11.2-2.206 16.54l-185.598-185.598 187.664-218.942c0.084 1.328 0.14 2.66 0.14 4v384z"></path>
</symbol>
<symbol id="icon-RSS" viewBox="0 0 1024 1024">
	<title>RSS</title>
	<path class="path1" d="M853.34 0h-682.654c-93.876 0-170.686 76.812-170.686 170.688v682.628c0 93.934 76.812 170.684 170.688 170.684h682.652c93.876 0 170.66-76.748 170.66-170.684v-682.628c0-93.876-76.784-170.688-170.66-170.688zM278.944 831.248c-47.97 0-86.944-38.692-86.944-86.628 0-47.684 38.972-86.812 86.944-86.812 48.158 0 87.060 39.128 87.060 86.812-0.002 47.936-38.904 86.628-87.060 86.628zM497.468 831.996c0-81.81-31.808-158.818-89.46-216.444-57.714-57.75-134.376-89.626-215.904-89.626v-125.186c237.652 0 431.126 193.442 431.126 431.254l-125.762 0.002zM719.628 831.996c0-291.062-236.658-527.94-527.376-527.94v-125.248c360.002 0 652.946 293.124 652.946 653.192l-125.57-0.004z"></path>
</symbol>
<symbol id="icon-GooglePlus" viewBox="0 0 1024 1024">
	<title>GooglePlus</title>
	<path class="path1" d="M0.806 869.664c-0.244-2.532-0.452-5.070-0.584-7.63 0.13 2.56 0.34 5.098 0.584 7.63zM235.908 565.148c92.010 2.738 153.734-92.698 137.862-213.198-15.894-120.48-103.396-217.168-195.408-219.922-92.026-2.73-153.74 89.482-137.852 210 15.882 120.468 103.352 220.374 195.398 223.12zM1024 256v-85.31c0-93.88-76.782-170.69-170.658-170.69h-682.656c-92.276 0-168.012 74.232-170.564 165.926 58.362-51.386 139.324-94.316 222.874-94.316 89.304 0 357.244 0 357.244 0l-79.948 67.618h-113.268c75.13 28.804 115.156 116.124 115.156 205.722 0 75.248-41.81 139.954-100.888 185.968-57.644 44.902-68.572 63.708-68.572 101.878 0 32.578 61.746 88 94.032 110.788 94.382 66.538 124.916 128.312 124.916 231.456 0 16.428-2.042 32.83-6.066 48.96h307.742c93.874 0 170.656-76.75 170.656-170.69v-533.308h-192v191.998h-64v-192h-191.998v-64h191.998v-192h64v192h192zM185.886 765.936c21.614 0 41.422-0.59 61.936-0.59-27.146-26.334-48.626-58.6-48.626-98.38 0-23.608 7.564-46.336 18.134-66.52-10.782 0.77-21.79 0.994-33.126 0.994-74.356 0-137.506-24.076-184.204-63.854v67.242l0.006 201.73c53.44-25.374 116.888-40.622 185.88-40.622zM3.42 887.258c-1.112-5.458-1.966-11.006-2.542-16.634 0.574 5.628 1.43 11.176 2.542 16.634zM455.45 952.846c-15.058-58.806-68.454-87.964-142.888-139.568-27.072-8.732-56.894-13.874-88.894-14.208-89.618-0.964-173.108 34.942-220.216 88.372 15.92 77.706 85.034 136.558 167.234 136.558h286.444c1.816-11.128 2.696-22.632 2.696-34.432 0-12.534-1.534-24.792-4.376-36.722z"></path>
</symbol>
<symbol id="icon-Vimeo" viewBox="0 0 1024 1024">
	<title>Vimeo</title>
	<path class="path1" d="M853.31 0h-682.62c-93.878 0-170.69 76.816-170.69 170.692v682.62c0 93.938 76.812 170.688 170.69 170.688h682.62c93.878 0 170.69-76.75 170.69-170.69v-682.618c0-93.876-76.812-170.692-170.69-170.692zM812.868 438.126c-33.958 191.296-223.708 353.296-280.78 390.31-57.088 37.006-109.154-14.822-128.038-53.994-21.616-44.708-86.41-286.94-103.368-307.020-16.964-20.038-67.876 20.080-67.876 20.080l-24.692-32.376c0 0 103.382-123.448 182.040-138.878 83.404-16.366 83.28 128.066 103.34 208.242 19.4 77.564 32.44 121.952 49.376 121.952 16.97 0 49.382-43.262 84.852-109.57 35.536-66.376-1.538-125.010-70.972-83.292 27.786-166.652 290.062-206.72 256.118-15.454z"></path>
</symbol>
<symbol id="icon-Twitter2" viewBox="0 0 1024 1024">
	<title>Twitter2</title>
	<path class="path1" d="M853.342 0h-682.656c-93.874 0-170.686 76.81-170.686 170.69v682.622c0 93.938 76.812 170.688 170.686 170.688h682.656c93.876 0 170.658-76.75 170.658-170.69v-682.62c0-93.88-76.782-170.69-170.658-170.69zM838.052 341.834c0.328 7.342 0.49 14.728 0.49 22.148 0 226.214-169.216 487.068-478.658 487.068-95.004 0-183.434-28.348-257.886-76.918 13.16 1.588 26.552 2.394 40.13 2.394 78.822 0 151.358-27.37 208.934-73.282-73.616-1.38-135.744-50.876-157.154-118.882 10.274 2 20.812 3.074 31.652 3.074 15.344 0 30.206-2.096 44.32-6.008-76.96-15.732-134.95-84.916-134.95-167.856 0-0.722 0-1.438 0.016-2.152 22.68 12.82 48.624 20.52 76.2 21.41-45.142-30.698-74.842-83.092-74.842-142.488 0-31.37 8.294-60.778 22.778-86.058 82.974 103.57 206.936 171.72 346.754 178.862-2.87-12.532-4.358-25.596-4.358-39.014 0-94.538 75.326-171.18 168.23-171.18 48.39 0 92.118 20.786 122.802 54.058 38.32-7.676 74.324-21.92 106.832-41.542-12.562 39.976-39.234 73.522-73.966 94.71 34.026-4.138 66.452-13.34 96.62-26.954-22.546 34.324-51.070 64.476-83.944 88.61z"></path>
</symbol>
<symbol id="icon-LinkedIn" viewBox="0 0 1024 1024">
	<title>LinkedIn</title>
	<path class="path1" d="M852 0h-680c-94.6 0-172 77.4-172 172v680c0 94.6 77.4 172 172 172h680c94.6 0 172-77.4 172-172v-680c0-94.6-77.4-172-172-172zM384 832h-128v-448h128v448zM320 320c-35.346 0-64-28.654-64-64s28.654-64 64-64 64 28.654 64 64-28.654 64-64 64zM832 832h-128v-256c0-35.346-28.654-64-64-64s-64 28.654-64 64v256h-128v-448h128v79.472c26.398-36.264 66.752-79.472 112-79.472 79.53 0 144 71.634 144 160v288z"></path>
</symbol>
<symbol id="icon-arrow-left" viewBox="0 0 1024 1024">
	<title>arrow-left</title>
	<path class="path1" d="M737.229 891.802c13.722 13.875 13.722 36.25 0 50.125s-35.891 13.875-49.613 0l-400.896-404.838c-13.722-13.875-13.722-36.301 0-50.125l400.896-404.89c13.722-13.875 35.891-13.875 49.613 0s13.722 36.25 0 50.125l-365.568 379.802 365.568 379.802z"></path>
</symbol>
<symbol id="icon-uniE601" viewBox="0 0 1024 1024">
	<title>uniE601</title>
	<path class="path1" d="M286.704 891.802c-13.722 13.875-13.722 36.25 0 50.125s35.891 13.875 49.613 0l400.896-404.838c13.722-13.875 13.722-36.301 0-50.125l-400.896-404.89c-13.722-13.875-35.891-13.875-49.613 0s-13.722 36.25 0 50.125l365.568 379.802-365.568 379.802z"></path>
</symbol>
</defs>
</svg>
